<svg width="1018" height="151" viewBox="0 0 1018 151" fill="none" xmlns="http://www.w3.org/2000/svg">
<path d="M114.1 26.5H70.5V149H43.6V26.5H1.19209e-07V4.39999H114.1V26.5ZM132.305 64.2C135.505 58.0667 139.305 53.2667 143.705 49.8C148.105 46.2667 153.305 44.5 159.305 44.5C164.038 44.5 167.838 45.5333 170.705 47.6L169.105 66.1C168.771 67.3 168.271 68.1667 167.605 68.7C167.005 69.1667 166.171 69.4 165.105 69.4C164.105 69.4 162.605 69.2333 160.605 68.9C158.671 68.5667 156.771 68.4 154.905 68.4C152.171 68.4 149.738 68.8 147.605 69.6C145.471 70.4 143.538 71.5667 141.805 73.1C140.138 74.5667 138.638 76.3667 137.305 78.5C136.038 80.6333 134.838 83.0667 133.705 85.8V149H109.005V46.4H123.505C126.038 46.4 127.805 46.8667 128.805 47.8C129.805 48.6667 130.471 50.2667 130.805 52.6L132.305 64.2ZM246.784 85.9C246.784 82.7 246.318 79.7 245.384 76.9C244.518 74.0333 243.184 71.5333 241.384 69.4C239.584 67.2667 237.284 65.6 234.484 64.4C231.751 63.1333 228.551 62.5 224.884 62.5C217.751 62.5 212.118 64.5333 207.984 68.6C203.918 72.6667 201.318 78.4333 200.184 85.9H246.784ZM199.684 100.8C200.084 106.067 201.018 110.633 202.484 114.5C203.951 118.3 205.884 121.467 208.284 124C210.684 126.467 213.518 128.333 216.784 129.6C220.118 130.8 223.784 131.4 227.784 131.4C231.784 131.4 235.218 130.933 238.084 130C241.018 129.067 243.551 128.033 245.684 126.9C247.884 125.767 249.784 124.733 251.384 123.8C253.051 122.867 254.651 122.4 256.184 122.4C258.251 122.4 259.784 123.167 260.784 124.7L267.884 133.7C265.151 136.9 262.084 139.6 258.684 141.8C255.284 143.933 251.718 145.667 247.984 147C244.318 148.267 240.551 149.167 236.684 149.7C232.884 150.233 229.184 150.5 225.584 150.5C218.451 150.5 211.818 149.333 205.684 147C199.551 144.6 194.218 141.1 189.684 136.5C185.151 131.833 181.584 126.1 178.984 119.3C176.384 112.433 175.084 104.5 175.084 95.5C175.084 88.5 176.218 81.9333 178.484 75.8C180.751 69.6 183.984 64.2333 188.184 59.7C192.451 55.1 197.618 51.4667 203.684 48.8C209.818 46.1333 216.718 44.8 224.384 44.8C230.851 44.8 236.818 45.8333 242.284 47.9C247.751 49.9667 252.451 53 256.384 57C260.318 60.9333 263.384 65.8 265.584 71.6C267.851 77.3333 268.984 83.9 268.984 91.3C268.984 95.0333 268.584 97.5667 267.784 98.9C266.984 100.167 265.451 100.8 263.184 100.8H199.684ZM310.62 59C312.687 56.9333 314.854 55.0333 317.12 53.3C319.454 51.5 321.887 50 324.42 48.8C327.02 47.5333 329.787 46.5667 332.72 45.9C335.654 45.1667 338.854 44.8 342.32 44.8C347.92 44.8 352.887 45.7667 357.22 47.7C361.554 49.5667 365.154 52.2333 368.02 55.7C370.954 59.1 373.154 63.2 374.62 68C376.154 72.7333 376.92 77.9667 376.92 83.7V149H352.22V83.7C352.22 77.4333 350.787 72.6 347.92 69.2C345.054 65.7333 340.687 64 334.82 64C330.554 64 326.554 64.9667 322.82 66.9C319.087 68.8333 315.554 71.4667 312.22 74.8V149H287.52V46.4H302.62C305.82 46.4 307.92 47.9 308.92 50.9L310.62 59ZM464.811 72.6C462.011 69.2 458.944 66.8 455.611 65.4C452.344 64 448.811 63.3 445.011 63.3C441.278 63.3 437.911 64 434.911 65.4C431.911 66.8 429.344 68.9333 427.211 71.8C425.078 74.6 423.444 78.2 422.311 82.6C421.178 86.9333 420.611 92.0667 420.611 98C420.611 104 421.078 109.1 422.011 113.3C423.011 117.433 424.411 120.833 426.211 123.5C428.011 126.1 430.211 128 432.811 129.2C435.411 130.333 438.311 130.9 441.511 130.9C446.644 130.9 451.011 129.833 454.611 127.7C458.211 125.567 461.611 122.533 464.811 118.6V72.6ZM489.511 0.399994V149H474.411C471.144 149 469.078 147.5 468.211 144.5L466.111 134.6C461.978 139.333 457.211 143.167 451.811 146.1C446.478 149.033 440.244 150.5 433.111 150.5C427.511 150.5 422.378 149.333 417.711 147C413.044 144.667 409.011 141.3 405.611 136.9C402.278 132.433 399.678 126.933 397.811 120.4C396.011 113.867 395.111 106.4 395.111 98C395.111 90.4 396.144 83.3333 398.211 76.8C400.278 70.2667 403.244 64.6 407.111 59.8C410.978 55 415.611 51.2667 421.011 48.6C426.411 45.8667 432.478 44.5 439.211 44.5C444.944 44.5 449.844 45.4 453.911 47.2C457.978 49 461.611 51.4333 464.811 54.5V0.399994H489.511ZM708.82 4.39999L663.92 149H639.62L608.02 50.2C607.154 47.8 606.354 44.8667 605.62 41.4C605.22 43.0667 604.82 44.6333 604.42 46.1C604.02 47.5667 603.587 48.9333 603.12 50.2L571.22 149H546.82L502.02 4.39999H524.52C526.854 4.39999 528.787 4.96666 530.32 6.1C531.92 7.16666 532.987 8.63332 533.52 10.5L558.12 97C558.654 99.1333 559.154 101.467 559.62 104C560.154 106.467 560.687 109.067 561.22 111.8C561.754 109 562.32 106.367 562.92 103.9C563.587 101.433 564.287 99.1333 565.02 97L593.42 10.5C593.954 8.96666 594.987 7.56666 596.52 6.3C598.12 5.03333 600.054 4.39999 602.32 4.39999H610.22C612.554 4.39999 614.454 4.96666 615.92 6.1C617.387 7.23333 618.487 8.69999 619.22 10.5L647.52 97C648.92 101.133 650.187 105.9 651.32 111.3C652.187 106.033 653.154 101.267 654.22 97L678.82 10.5C679.22 8.83332 680.22 7.39999 681.82 6.19999C683.487 4.99999 685.454 4.39999 687.72 4.39999H708.82ZM764.572 105.2C757.439 105.533 751.439 106.167 746.572 107.1C741.705 107.967 737.805 109.1 734.872 110.5C731.939 111.9 729.839 113.533 728.572 115.4C727.305 117.267 726.672 119.3 726.672 121.5C726.672 125.833 727.939 128.933 730.472 130.8C733.072 132.667 736.439 133.6 740.572 133.6C745.639 133.6 750.005 132.7 753.672 130.9C757.405 129.033 761.039 126.233 764.572 122.5V105.2ZM707.972 60.7C719.772 49.9 733.972 44.5 750.572 44.5C756.572 44.5 761.939 45.5 766.672 47.5C771.405 49.4333 775.405 52.1667 778.672 55.7C781.939 59.1667 784.405 63.3333 786.072 68.2C787.805 73.0667 788.672 78.4 788.672 84.2V149H777.472C775.139 149 773.339 148.667 772.072 148C770.805 147.267 769.805 145.833 769.072 143.7L766.872 136.3C764.272 138.633 761.739 140.7 759.272 142.5C756.805 144.233 754.239 145.7 751.572 146.9C748.905 148.1 746.039 149 742.972 149.6C739.972 150.267 736.639 150.6 732.972 150.6C728.639 150.6 724.639 150.033 720.972 148.9C717.305 147.7 714.139 145.933 711.472 143.6C708.805 141.267 706.739 138.367 705.272 134.9C703.805 131.433 703.072 127.4 703.072 122.8C703.072 120.2 703.505 117.633 704.372 115.1C705.239 112.5 706.639 110.033 708.572 107.7C710.572 105.367 713.139 103.167 716.272 101.1C719.405 99.0333 723.239 97.2333 727.772 95.7C732.372 94.1667 737.705 92.9333 743.772 92C749.839 91 756.772 90.4 764.572 90.2V84.2C764.572 77.3333 763.105 72.2667 760.172 69C757.239 65.6667 753.005 64 747.472 64C743.472 64 740.139 64.4667 737.472 65.4C734.872 66.3333 732.572 67.4 730.572 68.6C728.572 69.7333 726.739 70.7667 725.072 71.7C723.472 72.6333 721.672 73.1 719.672 73.1C717.939 73.1 716.472 72.6667 715.272 71.8C714.072 70.8667 713.105 69.8 712.372 68.6L707.972 60.7ZM835.234 64.2C838.434 58.0667 842.234 53.2667 846.634 49.8C851.034 46.2667 856.234 44.5 862.234 44.5C866.968 44.5 870.768 45.5333 873.634 47.6L872.034 66.1C871.701 67.3 871.201 68.1667 870.534 68.7C869.934 69.1667 869.101 69.4 868.034 69.4C867.034 69.4 865.534 69.2333 863.534 68.9C861.601 68.5667 859.701 68.4 857.834 68.4C855.101 68.4 852.668 68.8 850.534 69.6C848.401 70.4 846.468 71.5667 844.734 73.1C843.068 74.5667 841.568 76.3667 840.234 78.5C838.968 80.6333 837.768 83.0667 836.634 85.8V149H811.934V46.4H826.434C828.968 46.4 830.734 46.8667 831.734 47.8C832.734 48.6667 833.401 50.2667 833.734 52.6L835.234 64.2ZM949.714 85.9C949.714 82.7 949.247 79.7 948.314 76.9C947.447 74.0333 946.114 71.5333 944.314 69.4C942.514 67.2667 940.214 65.6 937.414 64.4C934.681 63.1333 931.481 62.5 927.814 62.5C920.681 62.5 915.047 64.5333 910.914 68.6C906.847 72.6667 904.247 78.4333 903.114 85.9H949.714ZM902.614 100.8C903.014 106.067 903.947 110.633 905.414 114.5C906.881 118.3 908.814 121.467 911.214 124C913.614 126.467 916.447 128.333 919.714 129.6C923.047 130.8 926.714 131.4 930.714 131.4C934.714 131.4 938.147 130.933 941.014 130C943.947 129.067 946.481 128.033 948.614 126.9C950.814 125.767 952.714 124.733 954.314 123.8C955.981 122.867 957.581 122.4 959.114 122.4C961.181 122.4 962.714 123.167 963.714 124.7L970.814 133.7C968.081 136.9 965.014 139.6 961.614 141.8C958.214 143.933 954.647 145.667 950.914 147C947.247 148.267 943.481 149.167 939.614 149.7C935.814 150.233 932.114 150.5 928.514 150.5C921.381 150.5 914.747 149.333 908.614 147C902.481 144.6 897.147 141.1 892.614 136.5C888.081 131.833 884.514 126.1 881.914 119.3C879.314 112.433 878.014 104.5 878.014 95.5C878.014 88.5 879.147 81.9333 881.414 75.8C883.681 69.6 886.914 64.2333 891.114 59.7C895.381 55.1 900.547 51.4667 906.614 48.8C912.747 46.1333 919.647 44.8 927.314 44.8C933.781 44.8 939.747 45.8333 945.214 47.9C950.681 49.9667 955.381 53 959.314 57C963.247 60.9333 966.314 65.8 968.514 71.6C970.781 77.3333 971.914 83.9 971.914 91.3C971.914 95.0333 971.514 97.5667 970.714 98.9C969.914 100.167 968.381 100.8 966.114 100.8H902.614ZM986.85 135.4C986.85 133.333 987.217 131.367 987.95 129.5C988.75 127.633 989.817 126.033 991.15 124.7C992.483 123.367 994.083 122.3 995.95 121.5C997.817 120.7 999.817 120.3 1001.95 120.3C1004.08 120.3 1006.05 120.7 1007.85 121.5C1009.72 122.3 1011.32 123.367 1012.65 124.7C1014.05 126.033 1015.15 127.633 1015.95 129.5C1016.75 131.367 1017.15 133.333 1017.15 135.4C1017.15 137.533 1016.75 139.533 1015.95 141.4C1015.15 143.2 1014.05 144.767 1012.65 146.1C1011.32 147.433 1009.72 148.467 1007.85 149.2C1006.05 150 1004.08 150.4 1001.95 150.4C999.817 150.4 997.817 150 995.95 149.2C994.083 148.467 992.483 147.433 991.15 146.1C989.817 144.767 988.75 143.2 987.95 141.4C987.217 139.533 986.85 137.533 986.85 135.4Z" fill="white"/>
</svg>
